<svg width="238" height="46" viewBox="0 0 238 46" fill="none" xmlns="http://www.w3.org/2000/svg">
<rect width="238" height="46" rx="2" fill="black"/>
<path d="M91.7582 21C91.3803 18.9119 89.7099 17.679 87.6616 17.679C85.0565 17.679 83.1673 19.6875 83.1673 22.9091C83.1673 26.1307 85.0565 28.1392 87.6616 28.1392C89.7099 28.1392 91.3803 26.9062 91.7582 24.8182H90.5252C90.2269 26.2301 89.0138 26.9858 87.6616 26.9858C85.8121 26.9858 84.3604 25.554 84.3604 22.9091C84.3604 20.2642 85.8121 18.8324 87.6616 18.8324C89.0138 18.8324 90.2269 19.5881 90.5252 21H91.7582ZM96.6937 28.1591C98.7619 28.1591 100.154 26.5881 100.154 24.2216C100.154 21.8352 98.7619 20.2642 96.6937 20.2642C94.6255 20.2642 93.2335 21.8352 93.2335 24.2216C93.2335 26.5881 94.6255 28.1591 96.6937 28.1591ZM96.6937 27.1051C95.1227 27.1051 94.4068 25.7528 94.4068 24.2216C94.4068 22.6903 95.1227 21.3182 96.6937 21.3182C98.2647 21.3182 98.9806 22.6903 98.9806 24.2216C98.9806 25.7528 98.2647 27.1051 96.6937 27.1051ZM102.506 20.3636H101.153L103.579 24.1818L101.153 28H102.506L104.335 25.0369L106.165 28H107.517L105.051 24.1818L107.517 20.3636H106.165L104.335 23.4858L102.506 20.3636ZM109.191 30.8636H110.364V26.8267H110.464C110.722 27.2443 111.219 28.1591 112.691 28.1591C114.6 28.1591 115.933 26.6278 115.933 24.2017C115.933 21.7955 114.6 20.2642 112.671 20.2642C111.18 20.2642 110.722 21.179 110.464 21.5767H110.325V20.3636H109.191V30.8636ZM110.344 24.1818C110.344 22.4716 111.1 21.3182 112.532 21.3182C114.023 21.3182 114.759 22.571 114.759 24.1818C114.759 25.8125 114.004 27.1051 112.532 27.1051C111.12 27.1051 110.344 25.9119 110.344 24.1818ZM119.969 28.179C121.302 28.179 121.998 27.4631 122.237 26.9659H122.296V28H123.469V22.9688C123.469 20.5426 121.62 20.2642 120.646 20.2642C119.492 20.2642 118.18 20.6619 117.583 22.054L118.697 22.4517C118.955 21.8949 119.567 21.2983 120.685 21.2983C121.764 21.2983 122.296 21.87 122.296 22.8494V22.8892C122.296 23.456 121.719 23.4062 120.327 23.5852C118.911 23.7692 117.364 24.0824 117.364 25.8324C117.364 27.3239 118.518 28.179 119.969 28.179ZM120.148 27.125C119.214 27.125 118.538 26.7074 118.538 25.892C118.538 24.9972 119.353 24.7188 120.268 24.5994C120.765 24.5398 122.097 24.4006 122.296 24.1619V25.2358C122.296 26.1903 121.54 27.125 120.148 27.125ZM126.784 20.3636H125.611V28H126.784V24.7386H130.443V28H131.617V20.3636H130.443V23.6449H126.784V20.3636ZM134.933 26.2699V20.3636H133.759V28H135.132L138.791 22.0938V28H139.964V20.3636H138.612L134.933 26.2699ZM141.074 21.4574H143.599V28H144.773V21.4574H147.278V20.3636H141.074V21.4574ZM150.163 23.1278V20.3636H148.99V28H152.192C153.981 28 154.956 26.9062 154.956 25.5341C154.956 24.142 153.981 23.1278 152.192 23.1278H150.163ZM150.163 24.2216H152.192C153.121 24.2216 153.782 24.7884 153.782 25.5938C153.782 26.3643 153.121 26.9062 152.192 26.9062H150.163V24.2216Z" fill="white"/>
</svg>
